name rise31.4854peak64.571fall78.6902.mot
datacolumns 19
datarows 21
range 13.53494600000000 13.56828000000000
endheader
time	ground_force1_vx	ground_force1_vy	ground_force1_vz	ground_force1_px	ground_force1_py	ground_force1_pz	ground_force2_vx	ground_force2_vy	ground_force2_vz	ground_force2_px	ground_force2_py	ground_force2_pz	ground_torque1_x	ground_torque1_y	ground_torque1_z	ground_torque2_x	ground_torque2_y	ground_torque2_z	
13.53494600000000	1.13046600000000	689.17921600000000	45.44901700000000	0.20130300000000	0.00000000000000	0.12245700000000	0.00000000000000	0.00000000000000	0.00000000000000	0.00000000000000	0.00000000000000	0.00000000000000	0.00000000000000	17.70588000000000	0.00000000000000	0.00000000000000	0.00000000000000	0.00000000000000	
13.53662100000000	0.65294000000000	690.91111500000000	45.54283600000000	0.20033400000000	0.00000000000000	0.12251200000000	0.00000000000000	0.00000000000000	0.00000000000000	0.00000000000000	0.00000000000000	0.00000000000000	0.00000000000000	17.80599800000000	0.00000000000000	0.00000000000000	0.00000000000000	0.00000000000000	
13.53828100000000	0.16219000000000	692.68565599999999	45.63992000000000	0.19934000000000	0.00000000000000	0.12256800000000	0.00000000000000	0.00000000000000	0.00000000000000	0.00000000000000	0.00000000000000	0.00000000000000	0.00000000000000	17.91024400000000	0.00000000000000	0.00000000000000	0.00000000000000	0.00000000000000	
13.53994900000000	-0.34208900000000	694.50045699999998	45.74007600000000	0.19832200000000	0.00000000000000	0.12262600000000	0.00000000000000	0.00000000000000	0.00000000000000	0.00000000000000	0.00000000000000	0.00000000000000	0.00000000000000	18.01856900000000	0.00000000000000	0.00000000000000	0.00000000000000	0.00000000000000	
13.54162600000000	-0.86015400000000	696.35319300000003	45.84312700000000	0.19728000000000	0.00000000000000	0.12268500000000	0.00000000000000	0.00000000000000	0.00000000000000	0.00000000000000	0.00000000000000	0.00000000000000	0.00000000000000	18.13092500000000	0.00000000000000	0.00000000000000	0.00000000000000	0.00000000000000	
13.54328400000000	-1.39221000000000	698.24159699999996	45.94890600000000	0.19621700000000	0.00000000000000	0.12274500000000	0.00000000000000	0.00000000000000	0.00000000000000	0.00000000000000	0.00000000000000	0.00000000000000	0.00000000000000	18.24726300000000	0.00000000000000	0.00000000000000	0.00000000000000	0.00000000000000	
13.54494900000000	-1.93841200000000	700.16346299999998	46.05726200000000	0.19513300000000	0.00000000000000	0.12280600000000	0.00000000000000	0.00000000000000	0.00000000000000	0.00000000000000	0.00000000000000	0.00000000000000	0.00000000000000	18.36753100000000	0.00000000000000	0.00000000000000	0.00000000000000	0.00000000000000	
13.54661400000000	-2.49886800000000	702.11665700000003	46.16805600000000	0.19402900000000	0.00000000000000	0.12286800000000	0.00000000000000	0.00000000000000	0.00000000000000	0.00000000000000	0.00000000000000	0.00000000000000	0.00000000000000	18.49167500000000	0.00000000000000	0.00000000000000	0.00000000000000	0.00000000000000	
13.54828700000000	-3.07363100000000	704.09911299999999	46.28116300000000	0.19290600000000	0.00000000000000	0.12293100000000	0.00000000000000	0.00000000000000	0.00000000000000	0.00000000000000	0.00000000000000	0.00000000000000	0.00000000000000	18.61964000000000	0.00000000000000	0.00000000000000	0.00000000000000	0.00000000000000	
13.54994700000000	-3.66270900000000	706.10884199999998	46.39647500000000	0.19176700000000	0.00000000000000	0.12299400000000	0.00000000000000	0.00000000000000	0.00000000000000	0.00000000000000	0.00000000000000	0.00000000000000	0.00000000000000	18.75136400000000	0.00000000000000	0.00000000000000	0.00000000000000	0.00000000000000	
13.55162600000000	-4.26605800000000	708.14392999999995	46.51389400000000	0.19061200000000	0.00000000000000	0.12305800000000	0.00000000000000	0.00000000000000	0.00000000000000	0.00000000000000	0.00000000000000	0.00000000000000	0.00000000000000	18.88678600000000	0.00000000000000	0.00000000000000	0.00000000000000	0.00000000000000	
13.55328600000000	-4.88358700000000	710.20254399999999	46.63334100000000	0.18944300000000	0.00000000000000	0.12312300000000	0.00000000000000	0.00000000000000	0.00000000000000	0.00000000000000	0.00000000000000	0.00000000000000	0.00000000000000	19.02583700000000	0.00000000000000	0.00000000000000	0.00000000000000	0.00000000000000	
13.55495200000000	-5.51515500000000	712.28293299999996	46.75474700000000	0.18826100000000	0.00000000000000	0.12318800000000	0.00000000000000	0.00000000000000	0.00000000000000	0.00000000000000	0.00000000000000	0.00000000000000	0.00000000000000	19.16844500000000	0.00000000000000	0.00000000000000	0.00000000000000	0.00000000000000	
13.55661200000000	-6.16057800000000	714.38342499999999	46.87806000000000	0.18706900000000	0.00000000000000	0.12325400000000	0.00000000000000	0.00000000000000	0.00000000000000	0.00000000000000	0.00000000000000	0.00000000000000	0.00000000000000	19.31453300000000	0.00000000000000	0.00000000000000	0.00000000000000	0.00000000000000	
13.55828400000000	-6.81962200000000	716.50243399999999	47.00324300000000	0.18586800000000	0.00000000000000	0.12331900000000	0.00000000000000	0.00000000000000	0.00000000000000	0.00000000000000	0.00000000000000	0.00000000000000	0.00000000000000	19.46402000000000	0.00000000000000	0.00000000000000	0.00000000000000	0.00000000000000	
13.55995100000000	-7.49201100000000	718.63845400000002	47.13027100000000	0.18466000000000	0.00000000000000	0.12338500000000	0.00000000000000	0.00000000000000	0.00000000000000	0.00000000000000	0.00000000000000	0.00000000000000	0.00000000000000	19.61681700000000	0.00000000000000	0.00000000000000	0.00000000000000	0.00000000000000	
13.56161400000000	-8.17742600000000	720.79006300000003	47.25913600000000	0.18344600000000	0.00000000000000	0.12345000000000	0.00000000000000	0.00000000000000	0.00000000000000	0.00000000000000	0.00000000000000	0.00000000000000	0.00000000000000	19.77283000000000	0.00000000000000	0.00000000000000	0.00000000000000	0.00000000000000	
13.56328800000000	-8.87550700000000	722.95591600000000	47.38984000000000	0.18222700000000	0.00000000000000	0.12351600000000	0.00000000000000	0.00000000000000	0.00000000000000	0.00000000000000	0.00000000000000	0.00000000000000	0.00000000000000	19.93195900000000	0.00000000000000	0.00000000000000	0.00000000000000	0.00000000000000	
13.56495300000000	-9.58585100000000	725.13475200000005	47.52240300000000	0.18100700000000	0.00000000000000	0.12358100000000	0.00000000000000	0.00000000000000	0.00000000000000	0.00000000000000	0.00000000000000	0.00000000000000	0.00000000000000	20.09409700000000	0.00000000000000	0.00000000000000	0.00000000000000	0.00000000000000	
13.56662200000000	-10.30801900000000	727.32538099999999	47.65685700000000	0.17978600000000	0.00000000000000	0.12364500000000	0.00000000000000	0.00000000000000	0.00000000000000	0.00000000000000	0.00000000000000	0.00000000000000	0.00000000000000	20.25913000000000	0.00000000000000	0.00000000000000	0.00000000000000	0.00000000000000	
13.56828000000000	-11.04153500000000	729.52669200000003	47.79324700000000	0.17856500000000	0.00000000000000	0.12370900000000	0.00000000000000	0.00000000000000	0.00000000000000	0.00000000000000	0.00000000000000	0.00000000000000	0.00000000000000	20.42693900000000	0.00000000000000	0.00000000000000	0.00000000000000	0.00000000000000	
